:SAMPLES-PER-SECOND 30
:FULLY-SPECIFIED
:DEGREES
46
root  72.4596 39.1733 -12.8429 -5.17608 -83.9853 3.37391
RightUpLeg  -2.17378 -4.14584 -2.47763
RightLeg  10.8639 7.19602 -0.339073
RightFoot  -8.05772 -0.0672769 0.437681
RightToes  -1.16417e-010 0 -3.6325e-017
Spine  -5.73918 1.27085 6.55022
Spine1  10.1625 1.80974 -3.3599
HEad  -5.3466 -1.71179 -2.86853
LeftShoulder1  -0.345938 4.43216 -31.1338
LeftArm  0.954554 10.2984 -41.8696
LeftForeArm  27.163 -15.8016 -6.27717
LeftHand  -0.215766 11.121 -3.01474
RightShoulder  -1.07044 -6.22961 32.6824
RightArm  15.0025 -1.54398 44.5069
RightForeArm  18.0138 8.84102 7.30965
RightHand  -0.0552324 3.29777 -0.996846
LeftUpLeg  3.45244 9.70934 5.98978
LeftLeg  7.98626 9.00325 0.716615
LeftFoot  -7.23262 0.17162 -3.57635
LeftToes  1.47335e-010 -1.29615e-010 3.08757e-011
47
root  72.333 38.9833 -13.0023 -3.12817 -83.3478 0.909313
RightUpLeg  -2.65152 -4.0168 -2.06325
RightLeg  13.3635 6.48188 -0.0227987
RightFoot  -9.54096 -0.0666276 0.129293
RightToes  -1.16417e-010 0 -3.6325e-017
Spine  -4.64452 1.36496 7.20775
Spine1  9.61194 1.84683 -2.437
HEad  -4.47209 -1.92064 -3.37911
LeftShoulder1  -0.327523 4.37365 -31.514
LeftArm  1.63627 10.0421 -41.734
LeftForeArm  26.9255 -16.2193 -6.1443
LeftHand  -0.223661 10.5259 -3.5637
RightShoulder  -1.08999 -6.31292 32.2309
RightArm  14.9025 -1.6222 44.501
RightForeArm  17.8529 8.78976 7.29714
RightHand  -0.128356 2.94494 -1.97473
LeftUpLeg  1.90159 10.8456 6.63543
LeftLeg  12.1534 7.03591 1.55923
LeftFoot  -8.85516 0.14113 -4.04468
LeftToes  1.47335e-010 -1.29615e-010 3.08757e-011
48
root  72.2089 38.7832 -13.1333 -0.786071 -82.3222 -2.0761
RightUpLeg  -2.75435 -4.58254 -1.71844
RightLeg  15.709 6.08007 0.444328
RightFoot  -11.0126 -0.0741059 -0.109494
RightToes  -1.16417e-010 0 -3.6325e-017
Spine  -3.32686 1.05839 8.28076
Spine1  9.13497 1.61857 -1.93182
HEad  -3.98284 -1.55704 -3.32806
LeftShoulder1  -0.358717 4.45289 -31.6704
LeftArm  1.99444 10.0647 -41.7178
LeftForeArm  26.1968 -16.9405 -5.80976
LeftHand  -0.178808 10.3689 -2.71121
RightShoulder  -1.10635 -6.36097 32.1571
RightArm  14.9049 -1.06733 44.315
RightForeArm  16.8921 8.12193 7.46662
RightHand  -0.185629 4.07246 -2.5061
LeftUpLeg  -0.271705 10.4981 7.28501
LeftLeg  17.6943 5.82564 2.45351
LeftFoot  -9.99216 0.119637 -5.21167
LeftToes  1.47335e-010 -1.29615e-010 3.08757e-011
49
root  71.9999 38.5906 -13.2912 -0.67039 -79.5903 -3.62714
RightUpLeg  -1.32535 -6.42142 -1.62444
RightLeg  17.4732 5.26062 0.722464
RightFoot  -12.6545 -0.0895179 -0.316515
RightToes  -1.16417e-010 0 -3.6325e-017
Spine  -1.84962 0.0925669 8.34594
Spine1  9.14094 0.604743 -0.336054
HEad  -2.9641 -1.97423 -3.4683
LeftShoulder1  -0.308984 4.31722 -31.8438
LeftArm  2.76327 10.1557 -41.562
LeftForeArm  25.2139 -17.901 -5.40184
LeftHand  -0.19299 10.8859 -2.73845
RightShoulder  -1.12437 -6.39871 32.2807
RightArm  15.771 -1.28626 43.5207
RightForeArm  17.5116 9.42664 7.35109
RightHand  -0.0381794 2.97685 -0.774844
LeftUpLeg  -2.47445 6.9399 7.90363
LeftLeg  24.2509 5.7462 3.1319
LeftFoot  -10.0468 0.158544 -8.33055
LeftToes  1.47335e-010 -1.29615e-010 3.08757e-011
50
root  71.8305 38.4369 -13.4475 -1.98602 -78.342 -3.37052
RightUpLeg  -0.483987 -6.94437 -1.5516
RightLeg  18.9963 4.48569 0.638828
RightFoot  -13.9058 -0.108138 -0.640916
RightToes  -1.16417e-010 0 -3.6325e-017
Spine  0.218288 0.00720272 8.38698
Spine1  8.34697 0.549274 0.965474
HEad  -2.00286 -2.48247 -3.49004
LeftShoulder1  -0.273338 4.22412 -31.8583
LeftArm  4.66858 10.47 -41.5348
LeftForeArm  22.7305 -19.1667 -4.99199
LeftHand  -0.135612 11.9103 -1.17315
RightShoulder  -1.18917 -6.5653 32.2885
RightArm  16.7907 -1.10812 42.7061
RightForeArm  16.5266 9.80108 7.50968
RightHand  -0.0720055 3.09685 -1.23048
LeftUpLeg  -5.20211 4.85839 8.1884
LeftLeg  31.0503 5.36687 3.8477
LeftFoot  -8.10205 0.345484 -10.5086
LeftToes  1.47335e-010 -1.29615e-010 3.08757e-011
51
root  71.6355 38.3423 -13.5459 -5.09359 -76.2753 -1.13212
RightUpLeg  0.754262 -8.80745 -2.51586
RightLeg  19.872 4.32362 1.04564
RightFoot  -15.032 -0.12686 -0.777997
RightToes  -1.16417e-010 0 -3.6325e-017
Spine  1.61723 -0.463627 7.90564
Spine1  7.81973 0.0834496 2.07996
HEad  -1.75194 -3.44197 -3.64409
LeftShoulder1  -0.223159 4.08358 -32.3651
LeftArm  6.68242 10.7536 -40.7754
LeftForeArm  21.1568 -20.5074 -4.56153
LeftHand  -0.0716329 11.6757 -0.131733
RightShoulder  -1.23614 -6.64549 32.7892
RightArm  17.5325 -0.682795 41.5614
RightForeArm  16.1208 10.0082 7.6474
RightHand  -0.0825135 2.14914 -1.45843
LeftUpLeg  -8.57803 2.02374 7.29449
LeftLeg  37.6595 6.35441 5.59562
LeftFoot  -3.50453 0.626009 -9.08705
LeftToes  1.47335e-010 -1.29615e-010 3.08757e-011
52
root  71.3947 38.3046 -13.6062 -8.78392 -74.7522 1.46265
RightUpLeg  2.58577 -10.4273 -3.86205
RightLeg  20.1888 4.59082 1.46857
RightFoot  -15.8185 -0.150355 -1.11403
RightToes  -1.16417e-010 0 -3.6325e-017
Spine  2.08151 -0.894368 8.17221
Spine1  9.44276 -0.0195766 1.57042
HEad  -1.20713 -4.21002 -3.162
LeftShoulder1  -0.252291 4.17904 -31.2291
LeftArm  6.05013 11.064 -41.8026
LeftForeArm  21.6212 -21.5385 -4.13618
LeftHand  -0.0797703 10.7775 -0.495291
RightShoulder  -1.11035 -6.38192 32.0251
RightArm  16.828 -0.238916 42.4418
RightForeArm  17.4255 9.75689 7.52297
RightHand  0.0145862 2.20309 0.103137
LeftUpLeg  -10.9556 0.509147 6.03749
LeftLeg  42.3685 6.00399 6.1858
LeftFoot  0.121262 0.611088 -5.98504
LeftToes  1.47335e-010 -1.29615e-010 3.08757e-011
53
root  71.1134 38.3573 -13.6523 -12.735 -74.9994 4.8469
RightUpLeg  3.9685 -11.0475 -5.05529
RightLeg  19.8688 5.64747 1.78214
RightFoot  -16.0155 -0.170721 -1.53193
RightToes  -1.16417e-010 0 -3.6325e-017
Spine  3.1756 -0.471528 8.43664
Spine1  9.28204 0.742178 0.662927
HEad  -0.381046 -5.5499 -3.16292
LeftShoulder1  -0.286005 4.26941 -31.2239
LeftArm  5.52578 11.4434 -41.2964
LeftForeArm  21.9113 -21.5295 -4.11801
LeftHand  -0.0966834 9.35151 -1.24926
RightShoulder  -1.10256 -6.36051 32.0324
RightArm  17.4648 0.147041 42.1949
RightForeArm  21.2669 9.12803 7.79505
RightHand  0.105372 1.73133 1.60183
LeftUpLeg  -12.3141 0.869903 4.76402
LeftLeg  43.9902 3.47438 3.96917
LeftFoot  -0.678145 0.532166 -5.66299
LeftToes  1.47335e-010 -1.29615e-010 3.08757e-011
